<svg xmlns="http://www.w3.org/2000/svg" viewBox="0 0 24 24" id="tax"><g><path d="M20,22H4a1,1,0,0,1-1-1V3A1,1,0,0,1,4,2H20a1,1,0,0,1,1,1V21A1,1,0,0,1,20,22ZM5,20H19V4H5Z"></path><path d="M17 14.75H7a.75.75 0 0 1 0-1.5H17a.75.75 0 0 1 0 1.5zM17 17.75H7a.75.75 0 0 1 0-1.5H17a.75.75 0 0 1 0 1.5zM8 10.75A.75.75 0 0 1 7.25 10V7a.75.75 0 0 1 1.5 0v3A.75.75 0 0 1 8 10.75z"></path><path d="M9 7.75H7a.75.75 0 0 1 0-1.5H9a.75.75 0 0 1 0 1.5zM10 10.75a.75.75 0 0 1-.67-1.08l1.5-3a.75.75 0 1 1 1.34.67l-1.5 3A.75.75 0 0 1 10 10.75z"></path><path d="M13 10.75a.75.75 0 0 1-.67-.42l-1.5-3a.75.75 0 1 1 1.34-.67l1.5 3A.75.75 0 0 1 13 10.75zM17 10.75a.75.75 0 0 1-.62-.33l-2-3a.75.75 0 0 1 1.25-.83l2 3A.75.75 0 0 1 17 10.75z"></path><path d="M15,10.75a.75.75,0,0,1-.62-1.17l2-3a.75.75,0,1,1,1.25.83l-2,3A.75.75,0,0,1,15,10.75Z"></path></g></svg>